<svg width="1440" height="1024" viewBox="0 0 1440 1024" fill="none" xmlns="http://www.w3.org/2000/svg">
<path d="M-103.974 320.175C-285.235 232.942 -343.998 45.9651 -235.225 -97.4493C-126.452 -240.864 108.668 -286.408 289.93 -199.175C471.191 -111.942 529.954 75.0352 421.181 218.45C312.408 361.864 77.2879 407.408 -103.974 320.175Z" fill="url(#paint0_linear_51_1597)" fill-opacity="0.5"/>
<path d="M955.184 1228.18C734.157 1111.16 670.855 842.964 813.795 629.16C956.735 415.355 1251.79 336.9 1472.82 453.926C1693.84 570.952 1757.15 839.143 1614.21 1052.95C1471.27 1266.75 1176.21 1345.21 955.184 1228.18Z" fill="url(#paint1_linear_51_1597)" fill-opacity="0.5"/>
<g filter="url(#filter0_b_51_1597)">
<rect width="1440" height="1024" fill="#E7E7F6" fill-opacity="0.8"/>
</g>
<defs>
<filter id="filter0_b_51_1597" x="-100" y="-100" width="1640" height="1224" filterUnits="userSpaceOnUse" color-interpolation-filters="sRGB">
<feFlood flood-opacity="0" result="BackgroundImageFix"/>
<feGaussianBlur in="BackgroundImageFix" stdDeviation="50"/>
<feComposite in2="SourceAlpha" operator="in" result="effect1_backgroundBlur_51_1597"/>
<feBlend mode="normal" in="SourceGraphic" in2="effect1_backgroundBlur_51_1597" result="shape"/>
</filter>
<linearGradient id="paint0_linear_51_1597" x1="92.7573" y1="22.5" x2="524.912" y2="309.859" gradientUnits="userSpaceOnUse">
<stop offset="0.0211087" stop-color="#00A0FF"/>
<stop offset="1" stop-color="#00A0FF" stop-opacity="0"/>
</linearGradient>
<linearGradient id="paint1_linear_51_1597" x1="1295.51" y1="1002.88" x2="1088.04" y2="549.268" gradientUnits="userSpaceOnUse">
<stop offset="0.0211087" stop-color="#0051FF"/>
<stop offset="1" stop-color="#00A0FF" stop-opacity="0"/>
</linearGradient>
</defs>
</svg>
