<svg width="147" height="24" viewBox="0 0 147 24" fill="none" xmlns="http://www.w3.org/2000/svg">
<path fill-rule="evenodd" clip-rule="evenodd" d="M12 24C5.37258 24 0 18.6274 0 12C0 5.37258 5.37258 0 12 0C15.3137 0 18.3137 1.34315 20.4853 3.51472L16.9497 7.05025C15.683 5.7835 13.933 5 12 5C8.13401 5 5 8.13401 5 12C5 15.866 8.13401 19 12 19V24Z" fill="black"/>
<rect x="18" y="22" width="10" height="4" transform="rotate(-90 18 22)" fill="#006EFA"/>
<rect x="12" y="12" width="10" height="4" fill="#00D8A4"/>
<path fill-rule="evenodd" clip-rule="evenodd" d="M26 6V14.0001C26 14.0001 26 14.0002 26 14.0002C26 18.4185 29.5817 22.0002 34 22.0002C38.4183 22.0002 42 18.4185 42 14.0002C42 14.0002 42 14.0002 42 14.0002V6.00012L38 6.00012V7.07044V14.0002C38 14.0002 38 14.0002 38 14.0002C38 16.2094 36.2091 18.0002 34 18.0002C31.7909 18.0002 30 16.2093 30 14.0002L30 14.0001L30 7.07044V6L26 6Z" fill="black"/>
<path fill-rule="evenodd" clip-rule="evenodd" d="M58 6V14.0001C58 14.0001 58 14.0002 58 14.0002C58 18.4185 61.5817 22.0002 66 22.0002C70.4183 22.0002 74 18.4185 74 14.0002C74 14.0002 74 14.0002 74 14.0002V6.00012L70 6.00012V7.07044V14.0002C70 14.0002 70 14.0002 70 14.0002C70 16.2094 68.2091 18.0002 66 18.0002C63.7909 18.0002 62 16.2093 62 14.0002L62 14.0001L62 7.07044V6L58 6Z" fill="black"/>
<path fill-rule="evenodd" clip-rule="evenodd" d="M54 6C49.5817 6 46 9.58169 46 13.9999V14V22.0001H50L50 20.9297L50 14.0048L50 14V13.9999C50 11.7908 51.7909 10 54 10V6ZM58 21.9999V22.0002H62V21.9999H58Z" fill="black"/>
<path d="M95.3846 2H84.3077C84.3077 2 84.3077 2 84.3077 2C84.3077 2 80 2 80 6.5C80 11 84.3077 11 84.3077 11C84.3077 11 84.3077 11 84.3077 11H91.0769C95.3846 11 95.9966 13.8304 96 15.5C96.0037 17.3459 94.7692 20 91.0769 20C88 20 84.9231 20 80.6154 20" stroke="#006EFA" stroke-width="4" stroke-linecap="square"/>
<path fill-rule="evenodd" clip-rule="evenodd" d="M118.084 14.5C118.641 13.457 119 12.1185 119 10.4211C119 7.63312 116.904 4 111.795 4C108.858 4 106.952 4.93583 105.804 6.04684C104.636 7.17688 104 8.72477 104 10.4211C104 13.1836 104.941 14.9632 106.163 16.0803C107.438 17.2457 109.366 18 111.795 18C112.207 18 112.61 17.971 113 17.915V21.9423C112.602 21.9807 112.2 22 111.795 22C105.308 22 100 17.9474 100 10.4211C100 4.98541 104.128 0 111.795 0C119.462 0 123 5.78947 123 10.4211C123 11.92 122.788 13.2812 122.402 14.5H118.084Z" fill="#006EFA"/>
<path d="M116 17H121V22H116V17Z" fill="#00D8A4"/>
<path d="M127 14.0001C127 18.4183 130.582 22 135 22H146.5V18H135C132.791 18 131 16.2091 131 14L131 1.0702V-5.72205e-05H127V14.0001Z" fill="#006EFA"/>
</svg>
