<svg width="22" height="22" viewBox="0 0 22 22" fill="none" xmlns="http://www.w3.org/2000/svg">
<g id="apple-black-logo 1" clip-path="url(#clip0_42_5919)">
<g id="Group">
<g id="Group_2">
<path id="Vector" d="M17.0283 12.3319C16.4231 9.2863 19.3139 7.50006 19.3139 7.50006C19.3139 7.50006 18.1876 5.87055 16.2947 5.45135C14.4028 5.03123 13.4559 5.55613 12.5108 5.94982C11.5648 6.34447 11.0928 6.34447 11.0928 6.34447C9.72761 6.34447 8.72967 4.89905 6.12871 5.55709C4.33683 6.0093 2.45049 8.07783 2.10968 10.5467C1.76886 13.0164 2.50433 16.1678 3.92235 18.6102C5.34037 21.0545 6.78487 21.9731 7.81012 21.9995C8.83542 22.025 9.85883 21.265 11.0928 21.08C12.3277 20.8968 13.0876 21.5275 14.2989 21.8683C15.5054 22.2082 15.9284 21.8928 17.3181 20.7108C18.7116 19.5288 19.9729 16.1386 19.9729 16.1386C19.9729 16.1386 17.6335 15.3795 17.0283 12.3319Z" fill="black"/>
<path id="Vector_2" d="M14.3489 3.48087C15.6895 2.1148 15.2354 0 15.2354 0C15.2354 0 13.3529 0.330444 12.0916 1.64272C10.8312 2.95596 11.0399 5.03015 11.0399 5.03015C11.0399 5.03015 13.0083 4.84606 14.3489 3.48087Z" fill="black"/>
</g>
</g>
</g>
<defs>
<clipPath id="clip0_42_5919">
<rect width="22" height="22" fill="white"/>
</clipPath>
</defs>
</svg>
