<svg width="23" height="22" viewBox="0 0 23 22" fill="none" xmlns="http://www.w3.org/2000/svg">
<path fill-rule="evenodd" clip-rule="evenodd" d="M17.2616 3.81614C16.4553 3.88765 15.6642 4.11695 14.9055 4.48834C14.1985 4.84289 13.5097 5.32062 12.9097 5.92062C11.4794 7.35098 10.7535 9.2382 10.7502 11.1062C10.747 12.9742 11.4662 14.8584 12.8911 16.2834C13.5259 16.9182 14.229 17.409 14.9821 17.7407L14.9859 17.7424C15.777 18.1105 16.6223 18.3207 17.4694 18.3898L17.4776 18.3905L17.4857 18.3918C17.7493 18.4353 17.9856 18.5705 18.1293 18.8085C18.3933 19.2206 18.2374 19.7439 17.7842 19.9764C15.7718 21.2133 13.4287 21.7146 11.16 21.4419C8.9283 21.1691 6.76961 20.1947 5.07335 18.4985C3.06434 16.4895 2.05348 13.8506 2.05812 11.1924C2.06277 8.53426 3.08282 5.89225 5.09841 3.87667C6.78164 2.19344 8.88821 1.23004 11.0655 0.931082L11.0677 0.930784C13.2998 0.650237 15.6062 1.07013 17.599 2.21182L17.6023 2.21377C17.842 2.35733 17.9782 2.59445 18.0219 2.85916L18.0236 2.87216C18.0694 3.33826 17.7415 3.76734 17.2642 3.81589L17.2616 3.81614ZM11.4279 19.7409L11.4264 19.7407C9.587 19.5317 7.78422 18.7212 6.35357 17.2905C4.67623 15.6132 3.84832 13.4035 3.85215 11.2088C3.85599 9.01402 4.69166 6.801 6.37533 5.11733C7.77635 3.71631 9.51118 2.90004 11.3331 2.66696C12.396 2.53039 13.4701 2.58365 14.5021 2.83669C14.3919 2.88363 14.2811 2.93403 14.17 2.98962C13.2597 3.41848 12.4442 4.0131 11.7051 4.75226C9.94328 6.51406 9.05062 8.84813 9.04661 11.144C9.0426 13.4399 9.92713 15.7712 11.6833 17.5274C12.4582 18.3023 13.3279 18.9127 14.2742 19.3382L14.2798 19.3407C14.4181 19.4019 14.5583 19.464 14.6997 19.5238C13.6304 19.7911 12.5218 19.8739 11.4279 19.7409Z" fill="white"/>
</svg>
