<svg width="42" height="25" viewBox="0 0 42 25" fill="none" xmlns="http://www.w3.org/2000/svg">
<path d="M21.9574 0.5C7.95748 0.5 0.000102295 5.57617 0.000102295 12.4305C0.000102295 15.1704 1.47458 17.9549 4.1786 20.1131L0.360172 23.2582C-0.0155402 23.568 -0.106675 24.008 0.131072 24.3835C0.367361 24.7589 0.88541 25 1.45748 25H21.9574C34.5 25 42 19 42 11.4305C42 6 35.9574 0.5 21.9574 0.5Z" fill="#0051FF"/>
<path d="M9.7 16.14C8.96667 16.14 8.37 15.9867 7.91 15.68C7.45667 15.3667 7.16667 14.9433 7.04 14.41L8.5 13.66C8.67333 14.2867 9.12 14.6 9.84 14.6C10.4533 14.6 10.7967 14.4033 10.87 14.01C10.91 13.81 10.84 13.6533 10.66 13.54C10.4867 13.42 10.1767 13.2833 9.73 13.13C9.07 12.91 8.57667 12.63 8.25 12.29C7.93 11.9433 7.82333 11.46 7.93 10.84C8.03667 10.1867 8.33667 9.69333 8.83 9.36C9.32333 9.02667 9.89333 8.86 10.54 8.86C11.1133 8.86 11.61 8.99667 12.03 9.27C12.4567 9.54333 12.76 9.93333 12.94 10.44L11.54 11.18C11.2933 10.66 10.9133 10.4 10.4 10.4C10.16 10.4 9.96667 10.45 9.82 10.55C9.68 10.65 9.59333 10.7767 9.56 10.93C9.52 11.1233 9.58333 11.2833 9.75 11.41C9.92333 11.53 10.22 11.6667 10.64 11.82C10.7667 11.8667 10.87 11.9067 10.95 11.94C11.0367 11.9667 11.14 12.0067 11.26 12.06C11.38 12.1067 11.4767 12.1533 11.55 12.2C11.63 12.24 11.72 12.2933 11.82 12.36C11.9267 12.42 12.01 12.4833 12.07 12.55C12.1367 12.6167 12.2033 12.6933 12.27 12.78C12.3433 12.86 12.3967 12.95 12.43 13.05C12.47 13.1433 12.5033 13.2467 12.53 13.36C12.5567 13.4667 12.5667 13.5867 12.56 13.72C12.56 13.8533 12.5467 13.9967 12.52 14.15C12.4067 14.79 12.0967 15.2833 11.59 15.63C11.09 15.97 10.46 16.14 9.7 16.14ZM16.2817 16.14C15.2684 16.14 14.4617 15.7733 13.8617 15.04C13.2684 14.3067 13.0651 13.4267 13.2517 12.4C13.4317 11.36 13.9084 10.51 14.6817 9.85C15.4617 9.19 16.3951 8.86 17.4817 8.86C18.4817 8.86 19.2784 9.22667 19.8717 9.96C20.4717 10.6933 20.6817 11.5733 20.5017 12.6C20.3151 13.64 19.8351 14.49 19.0617 15.15C18.2884 15.81 17.3617 16.14 16.2817 16.14ZM16.4517 14.58C17.0384 14.58 17.5651 14.3867 18.0317 14C18.5051 13.6133 18.7951 13.1133 18.9017 12.5C19.0084 11.8867 18.9017 11.3867 18.5817 11C18.2684 10.6133 17.8217 10.42 17.2417 10.42C16.6617 10.42 16.1451 10.6133 15.6917 11C15.2384 11.3867 14.9584 11.8867 14.8517 12.5C14.7451 13.12 14.8417 13.6233 15.1417 14.01C15.4417 14.39 15.8784 14.58 16.4517 14.58ZM24.1626 16.14C23.1492 16.14 22.3426 15.7733 21.7426 15.04C21.1492 14.3067 20.9459 13.4267 21.1326 12.4C21.3126 11.36 21.7892 10.51 22.5626 9.85C23.3426 9.19 24.2759 8.86 25.3626 8.86C26.3626 8.86 27.1592 9.22667 27.7526 9.96C28.3526 10.6933 28.5626 11.5733 28.3826 12.6C28.1959 13.64 27.7159 14.49 26.9426 15.15C26.1692 15.81 25.2426 16.14 24.1626 16.14ZM24.3326 14.58C24.9192 14.58 25.4459 14.3867 25.9126 14C26.3859 13.6133 26.6759 13.1133 26.7826 12.5C26.8892 11.8867 26.7826 11.3867 26.4626 11C26.1492 10.6133 25.7026 10.42 25.1226 10.42C24.5426 10.42 24.0259 10.6133 23.5726 11C23.1192 11.3867 22.8392 11.8867 22.7326 12.5C22.6259 13.12 22.7226 13.6233 23.0226 14.01C23.3226 14.39 23.7592 14.58 24.3326 14.58ZM28.6834 16L29.9134 9H31.1134L33.1234 12.93L33.8134 9H35.4134L34.1834 16H32.9834L30.9834 12.07L30.2834 16H28.6834Z" fill="white"/>
</svg>
