<svg width="22" height="22" viewBox="0 0 22 22" fill="none" xmlns="http://www.w3.org/2000/svg">
<g clip-path="url(#clip0_282_5631)">
<path d="M11 6C8.24295 6 6 8.24319 6 11C6 13.7568 8.24295 16 11 16C13.7566 16 16 13.7572 16 11C16 8.24275 13.7566 6 11 6Z" fill="#0051FF"/>
<path d="M11 3.86997C10.4061 3.86997 9.9248 3.38866 9.9248 2.79531V1.07516C9.9248 0.481311 10.4061 0 11 0C11.5938 0 12.0751 0.481311 12.0751 1.07516V2.79531C12.0751 3.38866 11.5933 3.86997 11 3.86997Z" fill="#0051FF"/>
<path d="M11 18.1295C10.4061 18.1295 9.9248 18.6108 9.9248 19.2047V20.9243C9.9248 21.5187 10.4061 22 11 22C11.5938 22 12.0751 21.5187 12.0751 20.9243V19.2047C12.0751 18.6108 11.5933 18.1295 11 18.1295Z" fill="#0051FF"/>
<path d="M16.0411 5.95841C15.6217 5.53848 15.6217 4.85792 16.0411 4.43799L17.2576 3.22156C17.677 2.80212 18.3581 2.80212 18.778 3.22156C19.1979 3.64149 19.1979 4.32254 18.778 4.74198L17.5616 5.95841C17.1421 6.37834 16.4616 6.37834 16.0411 5.95841Z" fill="#0051FF"/>
<path d="M5.95847 16.0421C5.53854 15.6217 4.85798 15.6217 4.43805 16.0421L3.22162 17.2581C2.80218 17.6775 2.8017 18.359 3.22162 18.7785C3.64155 19.1979 4.3226 19.1979 4.74204 18.7785L5.95847 17.5616C6.3784 17.1421 6.3784 16.4611 5.95847 16.0421Z" fill="#0051FF"/>
<path d="M18.1295 11C18.1295 10.4061 18.6108 9.9248 19.2047 9.9248H20.9248C21.5187 9.9248 22 10.4061 22 11C22 11.5938 21.5187 12.0746 20.9248 12.0746H19.2047C18.6108 12.0746 18.1295 11.5938 18.1295 11Z" fill="#0051FF"/>
<path d="M3.86997 11C3.86997 10.4061 3.38866 9.9248 2.79482 9.9248H1.07516C0.481311 9.9248 0 10.4061 0 11C0 11.5938 0.481311 12.0746 1.07516 12.0746H2.79531C3.38866 12.0746 3.86997 11.5938 3.86997 11Z" fill="#0051FF"/>
<path d="M16.0411 16.0421C16.4611 15.6227 17.1421 15.6227 17.5616 16.0421L18.778 17.2586C19.1979 17.6775 19.1979 18.359 18.778 18.7785C18.3581 19.1979 17.6775 19.1979 17.2576 18.7785L16.0411 17.562C15.6212 17.1421 15.6212 16.4616 16.0411 16.0421Z" fill="#0051FF"/>
<path d="M5.95841 5.95841C6.37834 5.53848 6.37834 4.85792 5.95841 4.43799L4.74198 3.22205C4.32205 2.80212 3.64149 2.80212 3.22156 3.22205C2.80163 3.64149 2.80163 4.32254 3.22156 4.74198L4.43799 5.95841C4.85792 6.37883 5.53848 6.37883 5.95841 5.95841Z" fill="#0051FF"/>
</g>
<defs>
<clipPath id="clip0_282_5631">
<rect width="22" height="22" fill="white"/>
</clipPath>
</defs>
</svg>
